<svg width="21" height="20" viewBox="0 0 21 20" fill="none" xmlns="http://www.w3.org/2000/svg">
<path d="M6.58643 11.4697C7.99628 11.4697 9.12624 12.6105 9.12646 14.0303V17.4395C9.12646 18.8495 7.99643 20 6.58643 20H3.20654C1.80654 20 0.666504 18.8495 0.666504 17.4395V14.0303C0.666732 12.6105 1.80668 11.4697 3.20654 11.4697H6.58643ZM18.1265 11.4697C19.5263 11.4697 20.6663 12.6105 20.6665 14.0303V17.4395C20.6665 18.8495 19.5265 20 18.1265 20H14.7466C13.3366 20 12.2065 18.8494 12.2065 17.4395V14.0303C12.2068 12.6105 13.3367 11.4697 14.7466 11.4697H18.1265ZM6.58643 0C7.99627 0 9.12622 1.14975 9.12646 2.56055V5.96973C9.12646 7.38973 7.99643 8.53027 6.58643 8.53027H3.20654C1.80654 8.53027 0.666504 7.38973 0.666504 5.96973V2.56055C0.666748 1.14975 1.80669 0 3.20654 0H6.58643ZM18.1265 0C19.5263 0 20.6663 1.14975 20.6665 2.56055V5.96973C20.6665 7.38973 19.5265 8.53027 18.1265 8.53027H14.7466C13.3366 8.53026 12.2065 7.38972 12.2065 5.96973V2.56055C12.2068 1.14976 13.3367 1.19252e-05 14.7466 0H18.1265Z" fill="#333333"/>
</svg>
